<svg xmlns="http://www.w3.org/2000/svg" xml:space="preserve" id="图层_1" x="0" y="0" version="1.1" viewBox="0 0 794 143"><style>.st0{fill:#e8362d}.st1{fill:#fff}</style><path d="M47.1 106.3c0 5.5-4.5 10-10 10s-10-4.5-10-10 4.5-10 10-10 10 4.5 10 10M134.8 95.9C128.4 50.2 92.1 14 46.5 7.5c-5.3 2.8-10.2 6.4-14.6 10.5v9.7c45.6 0 82.6 37.1 82.6 82.6h9.7c4.2-4.2 7.8-9.1 10.6-14.4" class="st0"/><path d="M142.3 65.4C142.3 29.3 113.1 0 77 0c-2.3 0-4.5.1-6.7.4l-1.5 4.3c32.1 11.2 57.6 36.7 68.9 68.8L142 72q.3-3.3.3-6.6M77.7 143c-20.8 0-40.3-8.1-54.9-22.8C8.1 105.6 0 86.1 0 65.3s8.1-40.3 22.8-55l4.1 4.2c-13.6 13.6-21 31.6-21 50.8s7.5 37.2 21 50.8c13.6 13.6 31.6 21 50.8 21s37.2-7.5 50.8-21l4.2 4.1C118 134.9 98.5 143 77.7 143" class="st0"/><path d="M76.9 114.9c1.6-16.2-5.6-31.3-17.7-40.5-6.4-4.8-14.2-8.1-22.7-8.9-2.2-.2-3.9-2.2-3.6-4.4.3-2.4 2.3-3.9 4.4-3.6 9.3.9 17.8 4.2 24.9 9.2C77.6 77.4 87 95.9 85 115.8c-.3 3.2-.9 6.2-1.8 9.2l11.8 3.3c3.5-1 7-2.3 10.2-3.8.8-4.5 1.3-9.2 1.3-14 0-37.4-27.6-68.4-63.6-73.7-4.3-.6-8.7-.7-11.9.1-5.1 1.3-9.5 4.1-12.9 7.9-4 4.5-6.3 10.4-6.3 16.8 0 11.4 7.4 21 17.7 24.3 1.9.6 4.9.9 6.4 1.1h.1c11.2 1.9 19.8 11.8 19.8 23.5 0 4.7-1.4 9.1-3.8 12.9l8.2 5.2c3.9 1 8 1.7 12.2 2 2.3-4.8 3.9-10.1 4.5-15.7" class="st0"/><path class="st1" d="M708 21.6h15v99.9h-15zM464.8 79.7c1.7-.8 3.3-1.8 4.6-3.1 3.2-3.1 5.3-7.6 5.3-13.3V39.5c0-5.7-2.1-10.2-5.3-13.3s-7.8-4.8-12.1-4.8l-43.3.2v100h15V81.4h15.5c3.9.2 11.2 1.8 13.4 11.8l5.9 28.4 16.4-.1-6.2-26.7c-1.9-8.5-4.9-12.9-9.2-15.1M429 35.6v-.1h25.8c3.1 0 4.8 2.7 4.8 5.7v20.5c0 3-1.7 5.7-4.8 5.7H429zM197.7 26.3c-3.2 3.1-5.3 7.6-5.3 13.3v63.9c0 5.7 2.1 10.2 5.3 13.3s7.8 4.8 12.1 4.8h40.5v-14h-38.1c-3.1 0-4.8-2.7-4.8-5.7V76.1h37.5v-14h-37.5V41.3c0-3 1.7-5.7 4.8-5.7h38.1v-14h-40.5c-4.2 0-8.9 1.6-12.1 4.7M755.9 35.6H794v-14h-40.5c-4.2 0-8.9 1.7-12.1 4.8s-5.3 7.6-5.3 13.3v81.6h15V76.1h37.5v-14h-37.5V41.3c0-3 1.7-5.7 4.8-5.7M307.2 62.1h-23.3c-3 0-5.4-2.4-5.4-5.4V41.3c0-3 1.7-5.7 4.8-5.7h37.4v-14h-39.9c-4.2 0-8.9 1.7-12.1 4.8s-5.3 7.6-5.3 13.3v20.7c0 9.7 7.9 17.6 17.6 17.6h23.3c3 0 5.4 2.4 5.4 5.4v18.5c0 3-1.7 5.7-4.8 5.7h-41.4v14h43.9c4.2 0 8.9-1.7 12.1-4.8s5.3-7.6 5.3-13.3V79.7c0-9.7-7.9-17.6-17.6-17.6M493.7 26.3c-3.2 3.1-5.3 7.6-5.3 13.3v63.9c0 5.7 2.1 10.2 5.3 13.3s7.8 4.8 12.1 4.8h40.5v-14h-38.1c-3.1 0-4.8-2.7-4.8-5.7V76.1h37.5v-14h-37.5V41.3c0-3 1.7-5.7 4.8-5.7h38.1v-14h-40.5c-4.2 0-8.9 1.6-12.1 4.7M603.2 62.1h-23.3c-3 0-5.4-2.4-5.4-5.4V41.3c0-3 1.7-5.7 4.8-5.7h37.4v-14h-39.9c-4.2 0-8.9 1.7-12.1 4.8s-5.3 7.6-5.3 13.3v20.7c0 9.7 7.9 17.6 17.6 17.6h23.3c3 0 5.4 2.4 5.4 5.4v18.5c0 3-1.7 5.7-4.8 5.7h-41.4v14h43.9c4.2 0 8.9-1.7 12.1-4.8s5.3-7.6 5.3-13.3V79.7c0-9.7-7.9-17.6-17.6-17.6M676.9 62.1h-23.3c-3 0-5.4-2.4-5.4-5.4V41.3c0-3 1.7-5.7 4.8-5.7h37.4v-14h-39.9c-4.2 0-8.9 1.7-12.1 4.8s-5.3 7.6-5.3 13.3v20.7c0 9.7 7.9 17.6 17.6 17.6H674c3 0 5.4 2.4 5.4 5.4v18.5c0 3-1.7 5.7-4.8 5.7h-41.4v14h43.9c4.2 0 8.9-1.7 12.1-4.8s5.3-7.6 5.3-13.3V79.7c0-9.7-7.9-17.6-17.6-17.6M383.8 21.5l-45.5.1v100h15V82.7h30.4c4.2 0 8.9-1.7 12.1-4.8s5.3-7.6 5.3-13.3V39.5c0-5.7-2.1-10.2-5.3-13.3-3.1-3.1-7.8-4.7-12-4.7m2.4 41.5c0 3-1.7 5.7-4.8 5.7h-28V35.5h28c3.1 0 4.8 2.7 4.8 5.7z"/></svg>
