<?xml version="1.0" encoding="UTF-8"?>
<svg width="21" height="21" version="1.1" viewBox="0 0 21 21" xmlns="http://www.w3.org/2000/svg">
 <defs>
  <style>.cls-1{fill:#e7352c;}</style>
 </defs>
 <path class="cls-1" d="m11.31 16.91a6.65 6.65 0 0 0-2.61-5.91 6.51 6.51 0 0 0-3.35-1.36 0.61 0.61 0 0 1-0.53-0.64 0.59 0.59 0 0 1 0.65-0.54 7.85 7.85 0 0 1 7 8.58 6.85 6.85 0 0 1-0.26 1.35l1.74 0.49a9.66 9.66 0 0 0 1.5-0.57 10.64 10.64 0 0 0 0.19-2.05 11 11 0 0 0-9.33-10.86 4.84 4.84 0 0 0-1.75 0 3.81 3.81 0 0 0-1.89 1.17 3.74 3.74 0 0 0 1.67 6 8.66 8.66 0 0 0 0.94 0.17 3.51 3.51 0 0 1 2.92 3.46 3.47 3.47 0 0 1-0.56 1.89l1.2 0.77a8.91 8.91 0 0 0 1.8 0.3 6.58 6.58 0 0 0 0.66-2.3m0.14 4.14a11.44 11.44 0 0 1-11.44-11.39 11.36 11.36 0 0 1 3.35-8.09l0.65 0.61a10.56 10.56 0 0 0 0 15 10.56 10.56 0 0 0 15 0l0.61 0.61a11.35 11.35 0 0 1-8.17 3.26m9.56-11.38a9.62 9.62 0 0 0-9.67-9.62c-0.34 0-0.67 0-1 0.05l-0.22 0.64a16.55 16.55 0 0 1 10.14 10.13l0.64-0.23c0-0.32 0.06-0.64 0.06-1m-1.11 4.5199a15.34 15.34 0 0 0-13-13 9.73 9.73 0 0 0-2.15 1.55v1.43a12.18 12.18 0 0 1 12.17 12.16h1.43a10.25 10.25 0 0 0 1.55-2.14m-12.91 1.54a1.48 1.48 0 1 1-1.48-1.48 1.48 1.48 0 0 1 1.48 1.48"/>
</svg>
