<svg xmlns="http://www.w3.org/2000/svg" viewBox="0 0 370.58 305.27"><path d="M42.53 247.11v10.51H12.5v12.19h27.56v9.72H12.5v13.94h30.67v10.51H0v-56.87h42.54zm18.64 42.86c.69 1.33 1.61 2.4 2.75 3.23q1.71 1.23 4.02 1.83c1.54.4 3.13.6 4.78.6 1.12 0 2.31-.09 3.58-.28s2.47-.54 3.58-1.08c1.12-.53 2.04-1.26 2.79-2.19.74-.93 1.12-2.11 1.12-3.54 0-1.54-.49-2.79-1.47-3.74s-2.27-1.75-3.86-2.39-3.4-1.2-5.42-1.67c-2.02-.48-4.06-1.01-6.13-1.59-2.12-.53-4.2-1.18-6.21-1.95-2.02-.77-3.82-1.76-5.42-2.99-1.59-1.22-2.88-2.75-3.86-4.58s-1.47-4.05-1.47-6.65c0-2.92.62-5.46 1.87-7.61s2.88-3.94 4.9-5.38c2.02-1.43 4.3-2.5 6.85-3.19s5.1-1.04 7.65-1.04c2.97 0 5.83.33 8.56 1s5.16 1.74 7.29 3.23c2.12 1.49 3.81 3.38 5.06 5.7 1.25 2.31 1.87 5.11 1.87 8.4H81.89c-.11-1.7-.47-3.11-1.08-4.22-.61-1.12-1.42-1.99-2.43-2.63s-2.16-1.09-3.46-1.35c-1.3-.27-2.72-.4-4.26-.4-1.01 0-2.02.11-3.03.32s-1.93.58-2.75 1.12c-.82.53-1.5 1.19-2.03 1.99s-.8 1.81-.8 3.03c0 1.11.21 2.02.64 2.71.42.69 1.26 1.33 2.51 1.91s2.97 1.17 5.18 1.75c2.2.58 5.08 1.33 8.64 2.23 1.06.21 2.54.6 4.42 1.15 1.88.56 3.76 1.45 5.62 2.67s3.46 2.85 4.82 4.9c1.35 2.04 2.03 4.66 2.03 7.85 0 2.6-.5 5.02-1.51 7.25s-2.51 4.16-4.5 5.77q-2.985 2.43-7.41 3.78c-2.95.9-6.36 1.35-10.24 1.35-3.13 0-6.17-.39-9.12-1.16s-5.55-1.98-7.81-3.62c-2.26-1.65-4.05-3.74-5.38-6.29s-1.96-5.58-1.91-9.08h12.11c0 1.91.34 3.53 1.04 4.86zm67.78-42.86c3.56 0 6.58.52 9.08 1.55s4.53 2.4 6.09 4.1c1.57 1.7 2.71 3.64 3.42 5.81.72 2.18 1.08 4.43 1.08 6.77s-.36 4.53-1.08 6.73-1.86 4.16-3.42 5.85c-1.57 1.7-3.6 3.07-6.09 4.1-2.5 1.04-5.52 1.55-9.08 1.55h-13.14v20.39H103.3v-56.87h25.65zm-3.43 26.77c1.43 0 2.81-.11 4.14-.32s2.5-.62 3.5-1.23c1.01-.61 1.82-1.47 2.43-2.59s.92-2.58.92-4.38-.31-3.27-.92-4.38c-.61-1.12-1.42-1.98-2.43-2.59s-2.18-1.02-3.5-1.23c-1.33-.21-2.71-.32-4.14-.32h-9.72v17.05h9.72zm28.73 8.03h19.7v7.31h-19.7z" style="fill:currentColor"/><path d="M211.77 261.65c-2.46-1.75-5.38-2.62-8.77-2.62-2.89 0-5.36.55-7.41 1.66s-3.75 2.59-5.08 4.46c-1.33 1.86-2.31 3.99-2.95 6.39-.63 2.39-.95 4.88-.95 7.46 0 2.81.31 5.47.95 7.98.63 2.51 1.61 4.7 2.95 6.56 1.33 1.87 3.04 3.35 5.11 4.46 2.08 1.1 4.56 1.66 7.45 1.66 2.12 0 4-.36 5.65-1.07s3.07-1.7 4.27-2.97 2.13-2.77 2.81-4.52 1.08-3.64 1.22-5.66h6.43c-.63 6.22-2.73 11.05-6.3 14.5s-8.44 5.18-14.62 5.18c-3.75 0-7.02-.66-9.82-1.97s-5.12-3.12-6.97-5.42-3.24-5.02-4.16-8.15-1.39-6.49-1.39-10.08.5-6.96 1.49-10.12c.99-3.15 2.45-5.9 4.37-8.25s4.31-4.2 7.18-5.56 6.15-2.04 9.85-2.04c2.53 0 4.92.34 7.18 1.04 2.26.69 4.27 1.7 6.03 3.04s3.23 3 4.4 5.01c1.17 2 1.94 4.32 2.3 6.94h-6.43c-.72-3.5-2.31-6.12-4.77-7.87zm26.98-6.97v43.78h25.59v5.52h-32.02v-49.31h6.43zm52.33 0 18.89 49.31h-7.11l-5.28-14.85h-20.45l-5.42 14.85h-6.57l18.82-49.31h7.11zm4.47 28.93-8.06-23h-.14l-8.19 23h16.38zm55.38 20.38-11.04-41.44h-.13l-11.17 41.44h-6.7l-12.39-49.31h6.57l9.48 41.02h.14l10.83-41.02h6.97l10.7 41.02h.14l9.82-41.02h6.43l-12.93 49.31h-6.7zm-80.81-188.04v.06l-.04.56v.04c-1.32 21.35-10.52 40.55-24.72 54.74-15.39 15.39-36.62 24.89-60.09 24.89-9.94 0-19.46-1.71-28.32-4.83-31.44-11.11-54.39-40.2-56.48-74.92-.01-.16-.03-.33-.03-.49 0-1.31.53-2.48 1.39-3.34s2.04-1.39 3.34-1.39h160.2c1.32 0 2.49.53 3.36 1.39.85.85 1.38 2.01 1.39 3.28zM156.95 38.14v54.24c0 1.3-.53 2.48-1.39 3.34-.85.86-2.04 1.39-3.34 1.39h-44.94c-2.61 0-4.73-2.12-4.73-4.73q0-.48.09-.9l.13-.5c3.74-15.31 11.63-28.99 22.43-39.77 7.21-7.21 15.7-13.13 25.11-17.39.03-.01.04-.01.07-.03.56-.24 1.19-.37 1.85-.37 1.3 0 2.49.53 3.34 1.39.86.85 1.39 2.04 1.39 3.34zm111.06 54.24c0 1.3-.53 2.48-1.39 3.34s-2.05 1.39-3.36 1.39h-73.27c-2.61 0-4.73-2.12-4.73-4.73V4.74c0-1.3.53-2.49 1.39-3.36.86-.85 2.04-1.38 3.34-1.38.65 0 1.28.13 1.85.37.14.06.27.13.42.2 14.83 6.83 28.23 16.25 39.65 27.66 15.84 15.84 27.85 35.54 34.46 57.58.03.06.04.13.06.19.47 1.53.9 3.08 1.3 4.65.03.1.06.2.07.32.01.03.01.06.03.09.03.13.07.26.09.39.07.3.1.62.1.93z" style="fill:#e8362d"/></svg>
