<svg width="2206" height="1652" viewBox="0 0 2206 1652" fill="none" xmlns="http://www.w3.org/2000/svg">
<style>
  :root {
    --claw-deep: #492626;
    --claw-primary: #AD1212;
    --claw-primary-2: #BC231B;
    --claw-primary-3: #E8362D;
    --claw-primary-soft: #F15959;
    --claw-line-soft: #FF8781;
    --claw-surface: #FFF4F4;
    --claw-contrast: #FFFFFF;
  }

  @media (prefers-color-scheme: dark) {
    :root {
      --claw-deep: #F4DADA;
      --claw-primary: #FF7B74;
      --claw-primary-2: #FF8F89;
      --claw-primary-3: #FF9A94;
      --claw-primary-soft: #FFB2AE;
      --claw-line-soft: #D26A67;
      --claw-surface: #2A1A1A;
      --claw-contrast: #161010;
    }
  }
</style>
<rect x="214" y="288" width="1774.31" height="428" rx="98" stroke="var(--claw-primary)" stroke-width="12" stroke-dasharray="96 96"/>
<rect x="288" y="400.5" width="546" height="203" rx="32" fill="var(--claw-deep)"/>
<rect x="288" y="400.5" width="546" height="203" rx="32" stroke="var(--claw-contrast)"/>
<path d="M485.16 530.228H514.248V540.5H473.832V473.3H485.16V530.228ZM536.441 530.228H565.529V540.5H525.113V473.3H536.441V530.228ZM647.435 540.5H636.971L636.875 490.292L615.659 533.492H608.267L587.051 490.292V540.5H576.395V473.3H589.835L612.011 517.94L634.091 473.3H647.435V540.5Z" fill="var(--claw-contrast)"/>
<path d="M996.98 456.246C993.007 458.561 993.007 464.3 996.98 466.615L1028.84 485.175C1032.84 487.506 1037.86 484.62 1037.86 479.991L1037.86 475.476C1037.86 473.267 1039.65 471.476 1041.86 471.476L1164.27 471.476C1169.82 471.476 1174.31 466.979 1174.31 461.43C1174.31 455.882 1169.82 451.384 1164.27 451.384L1041.86 451.384C1039.65 451.384 1037.86 449.593 1037.86 447.384L1037.86 442.87C1037.86 438.241 1032.84 435.355 1028.84 437.686L996.98 456.246Z" fill="var(--claw-primary-2)"/>
<path d="M1171.33 537.385C1175.31 539.7 1175.31 545.439 1171.33 547.754L1139.47 566.314C1135.47 568.645 1130.45 565.759 1130.45 561.13L1130.45 556.616C1130.45 554.406 1128.66 552.616 1126.45 552.616L1004.05 552.616C998.498 552.616 994 548.118 994 542.57C994 537.021 998.498 532.524 1004.05 532.524L1126.45 532.524C1128.66 532.524 1130.45 530.733 1130.45 528.524L1130.45 524.009C1130.45 519.38 1135.47 516.494 1139.47 518.825L1171.33 537.385Z" fill="var(--claw-primary-2)"/>
<rect x="1334.31" y="362" width="580" height="280" rx="32" fill="var(--claw-surface)"/>
<rect x="1334.31" y="362" width="580" height="280" rx="32" stroke="var(--claw-line-soft)"/>
<path d="M1558.86 438.48H1528.3V453.6H1555.66V462.08H1528.3V477.52H1559.82V486H1518.86V430H1558.86V438.48ZM1590.08 486H1580.56L1564.08 443.44H1573.68L1585.52 476.96L1597.2 443.44H1606.4L1590.08 486ZM1628.79 443.12C1643.75 443.12 1649.83 452.88 1648.71 468.24H1616.55C1617.99 474.8 1623.03 478.88 1629.75 478.88C1634.39 478.88 1638.63 477.12 1641.75 473.92L1646.63 479.12C1642.47 483.68 1636.39 486.32 1629.03 486.32C1615.91 486.32 1607.27 477.6 1607.27 464.8C1607.27 451.92 1616.15 443.2 1628.79 443.12ZM1616.39 461.52H1640.71C1640.39 454.64 1635.83 450.48 1628.87 450.48C1622.15 450.48 1617.43 454.72 1616.39 461.52ZM1683.18 443.12C1693.1 443.12 1699.02 449.36 1699.02 459.52V486H1689.82V462.08C1689.82 455.68 1685.98 451.76 1679.58 451.76C1672.54 451.84 1668.14 456.72 1667.5 463.36V486H1658.3V443.44H1667.5V451.6C1670.54 445.68 1675.98 443.12 1683.18 443.12ZM1733.11 476.24L1735.43 483.28C1732.07 485.28 1728.55 486.4 1724.95 486.4C1718.55 486.4 1713.03 482.72 1713.03 474V451.92H1707.03V445.04H1713.03V433.36H1722.15V445.04H1734.71V451.92H1722.15V472.32C1722.15 476.72 1723.83 478.08 1726.71 478.08C1728.63 478.08 1730.63 477.44 1733.11 476.24ZM1531.84 582L1521.6 565.04C1520.8 565.12 1519.92 565.12 1519.04 565.12H1505.76V582H1496.32V526H1519.04C1533.36 526 1541.6 532.96 1541.6 545.12C1541.6 554.08 1537.44 560.4 1530 563.28L1542.56 582H1531.84ZM1505.76 556.64H1519.04C1527.68 556.64 1532.64 552.96 1532.64 545.36C1532.64 538 1527.68 534.48 1519.04 534.48H1505.76V556.64ZM1571.81 539.12C1584.93 539.12 1593.97 547.84 1593.97 560.72C1593.97 573.52 1584.93 582.32 1571.81 582.32C1558.61 582.32 1549.57 573.52 1549.57 560.72C1549.57 547.84 1558.61 539.12 1571.81 539.12ZM1571.81 547.04C1564.13 547.04 1558.77 552.64 1558.77 560.8C1558.77 569.04 1564.13 574.64 1571.81 574.64C1579.41 574.64 1584.77 569.04 1584.77 560.8C1584.77 552.64 1579.41 547.04 1571.81 547.04ZM1642.21 539.44V582H1633.01V573.68C1630.13 579.6 1624.77 582.24 1617.81 582.32C1608.05 582.32 1602.21 576.08 1602.21 565.92V539.44H1611.41V563.36C1611.41 569.76 1615.17 573.68 1621.33 573.68C1628.69 573.52 1633.01 567.84 1633.01 560.4V539.44H1642.21ZM1677.6 572.24L1679.92 579.28C1676.56 581.28 1673.04 582.4 1669.44 582.4C1663.04 582.4 1657.52 578.72 1657.52 570V547.92H1651.52V541.04H1657.52V529.36H1666.64V541.04H1679.2V547.92H1666.64V568.32C1666.64 572.72 1668.32 574.08 1671.2 574.08C1673.12 574.08 1675.12 573.44 1677.6 572.24ZM1705.47 539.12C1720.43 539.12 1726.51 548.88 1725.39 564.24H1693.23C1694.67 570.8 1699.71 574.88 1706.43 574.88C1711.07 574.88 1715.31 573.12 1718.43 569.92L1723.31 575.12C1719.15 579.68 1713.07 582.32 1705.71 582.32C1692.59 582.32 1683.95 573.6 1683.95 560.8C1683.95 547.92 1692.83 539.2 1705.47 539.12ZM1693.07 557.52H1717.39C1717.07 550.64 1712.51 546.48 1705.55 546.48C1698.83 546.48 1694.11 550.72 1693.07 557.52ZM1744.18 539.44V547.92C1747.06 542.16 1752.18 539.12 1758.9 539.12V547.92C1750.34 547.44 1744.9 552.48 1744.18 559.76V582H1734.98V539.44H1744.18Z" fill="var(--claw-primary)"/>
<path d="M1647.26 800.826C1649.33 804.371 1646.81 808.85 1642.75 808.85L1633.68 808.85L1633.68 851.15L1642.75 851.15C1646.81 851.15 1649.33 855.629 1647.26 859.174L1628.51 891.388C1626.48 894.871 1621.52 894.871 1619.49 891.388L1600.74 859.174C1598.67 855.629 1601.19 851.15 1605.25 851.15L1614.32 851.15L1614.32 808.85L1605.25 808.85C1601.19 808.85 1598.67 804.371 1600.74 800.826L1619.49 768.612C1621.52 765.129 1626.48 765.129 1628.51 768.612L1647.26 800.826Z" fill="var(--claw-primary-soft)"/>
<path d="M1422.16 961.76C1430.08 961.76 1438 965.04 1443.44 970.4L1437.92 977.28C1433.84 972.88 1428 970.16 1422.32 970.16C1411.12 970.16 1402.32 978.8 1402.32 989.84C1402.32 1000.88 1411.12 1009.6 1422.32 1009.6C1427.92 1009.6 1433.68 1007.04 1437.92 1002.96L1443.52 1009.2C1437.84 1014.8 1429.76 1018.4 1421.84 1018.4C1405.44 1018.4 1392.72 1006 1392.72 989.92C1392.72 974 1405.6 961.76 1422.16 961.76ZM1478.1 1018V1012.8C1475.06 1016.56 1470.18 1018.4 1464.02 1018.4C1454.82 1018.4 1449.06 1012.72 1449.06 1005.2C1449.06 997.44 1454.9 992.48 1465.14 992.4H1478.02V991.12C1478.02 985.76 1474.58 982.56 1467.86 982.56C1463.78 982.56 1459.54 984 1455.3 986.88L1451.54 980.48C1457.46 976.96 1461.78 975.12 1469.86 975.12C1480.82 975.12 1486.98 980.72 1487.06 990.08L1487.14 1018H1478.1ZM1465.94 1011.12C1472.5 1011.12 1477.54 1007.68 1478.02 1003.04V999.12H1466.5C1460.5 999.12 1457.7 1000.72 1457.7 1004.8C1457.7 1008.64 1460.82 1011.12 1465.94 1011.12ZM1523.94 975.12C1536.02 975.12 1544.26 983.92 1544.26 996.88C1544.26 1009.6 1536.26 1018.32 1524.1 1018.32C1517.3 1018.32 1512.18 1015.6 1509.06 1010.64V1033.52H1499.86V975.44H1509.06V982.8C1512.18 977.84 1517.3 975.12 1523.94 975.12ZM1522.02 1010.48C1529.62 1010.48 1534.98 1004.72 1534.98 996.56C1534.98 988.64 1529.62 982.8 1522.02 982.8C1514.42 982.8 1509.06 988.56 1509.06 996.56C1509.06 1004.8 1514.42 1010.48 1522.02 1010.48ZM1579.35 1018V1012.8C1576.31 1016.56 1571.43 1018.4 1565.27 1018.4C1556.07 1018.4 1550.31 1012.72 1550.31 1005.2C1550.31 997.44 1556.15 992.48 1566.39 992.4H1579.27V991.12C1579.27 985.76 1575.83 982.56 1569.11 982.56C1565.03 982.56 1560.79 984 1556.55 986.88L1552.79 980.48C1558.71 976.96 1563.03 975.12 1571.11 975.12C1582.07 975.12 1588.23 980.72 1588.31 990.08L1588.39 1018H1579.35ZM1567.19 1011.12C1573.75 1011.12 1578.79 1007.68 1579.27 1003.04V999.12H1567.75C1561.75 999.12 1558.95 1000.72 1558.95 1004.8C1558.95 1008.64 1562.07 1011.12 1567.19 1011.12ZM1625.19 975.12C1637.27 975.12 1645.51 983.92 1645.51 996.88C1645.51 1009.6 1637.51 1018.32 1625.35 1018.32C1618.55 1018.32 1613.43 1015.6 1610.31 1010.64V1018H1601.11V958.64H1610.31V982.8C1613.43 977.84 1618.55 975.12 1625.19 975.12ZM1623.27 1010.48C1630.87 1010.48 1636.23 1004.72 1636.23 996.56C1636.23 988.64 1630.87 982.8 1623.27 982.8C1615.67 982.8 1610.31 988.56 1610.31 996.56C1610.31 1004.8 1615.67 1010.48 1623.27 1010.48ZM1659.64 957.68C1662.68 957.68 1665 960 1665 963.28C1665 966.48 1662.68 968.8 1659.64 968.8C1656.6 968.8 1654.28 966.48 1654.28 963.28C1654.28 960 1656.6 957.68 1659.64 957.68ZM1664.2 1018H1655.08V975.44H1664.2V1018ZM1687.42 1018H1678.22V958.64H1687.42V1018ZM1705.97 957.68C1709.01 957.68 1711.33 960 1711.33 963.28C1711.33 966.48 1709.01 968.8 1705.97 968.8C1702.93 968.8 1700.61 966.48 1700.61 963.28C1700.61 960 1702.93 957.68 1705.97 957.68ZM1710.53 1018H1701.41V975.44H1710.53V1018ZM1745.9 1008.24L1748.22 1015.28C1744.86 1017.28 1741.34 1018.4 1737.74 1018.4C1731.34 1018.4 1725.82 1014.72 1725.82 1006V983.92H1719.82V977.04H1725.82V965.36H1734.94V977.04H1747.5V983.92H1734.94V1004.32C1734.94 1008.72 1736.62 1010.08 1739.5 1010.08C1741.42 1010.08 1743.42 1009.44 1745.9 1008.24ZM1761.28 957.68C1764.32 957.68 1766.64 960 1766.64 963.28C1766.64 966.48 1764.32 968.8 1761.28 968.8C1758.24 968.8 1755.92 966.48 1755.92 963.28C1755.92 960 1758.24 957.68 1761.28 957.68ZM1765.84 1018H1756.72V975.44H1765.84V1018ZM1796.98 975.12C1811.94 975.12 1818.02 984.88 1816.9 1000.24H1784.74C1786.18 1006.8 1791.22 1010.88 1797.94 1010.88C1802.58 1010.88 1806.82 1009.12 1809.94 1005.92L1814.82 1011.12C1810.66 1015.68 1804.58 1018.32 1797.22 1018.32C1784.1 1018.32 1775.46 1009.6 1775.46 996.8C1775.46 983.92 1784.34 975.2 1796.98 975.12ZM1784.58 993.52H1808.9C1808.58 986.64 1804.02 982.48 1797.06 982.48C1790.34 982.48 1785.62 986.72 1784.58 993.52ZM1839.21 975.04C1844.57 975.04 1850.25 976.64 1854.09 979.36L1850.73 986.16C1846.97 983.84 1842.25 982.4 1838.49 982.4C1834.89 982.4 1832.25 983.6 1832.25 986.64C1832.25 994.48 1854.89 990.24 1854.81 1005.68C1854.81 1014.4 1847.05 1018.32 1838.49 1018.32C1832.25 1018.32 1825.61 1016.24 1821.37 1012.4L1824.65 1005.84C1828.33 1009.12 1834.25 1011.12 1838.89 1011.12C1842.81 1011.12 1845.85 1009.76 1845.85 1006.56C1845.85 997.84 1823.45 1002.72 1823.53 987.36C1823.53 978.72 1831.05 975.04 1839.21 975.04Z" fill="var(--claw-primary)"/>
<path d="M1471.92 1155.88C1475.89 1149.58 1478 1142.32 1478 1134.92C1478 1127.51 1475.89 1120.26 1471.92 1113.96C1464.45 1102.17 1451.31 1095 1437.15 1095C1422.99 1095 1409.85 1102.17 1402.38 1113.96C1398.32 1120.2 1396.11 1127.43 1396 1134.84C1395.9 1142.24 1397.91 1149.53 1401.8 1155.88C1409.25 1167.76 1422.46 1175 1436.69 1175C1450.92 1175 1464.13 1167.76 1471.58 1155.88C1471.57 1155.77 1471.57 1155.65 1471.58 1155.55L1471.92 1155.88ZM1436.86 1169.28C1432.39 1169.28 1427.56 1162.56 1424.99 1151.79C1432.84 1150.47 1440.87 1150.47 1448.73 1151.79C1446.16 1162.56 1441.32 1169.28 1436.86 1169.28ZM1402.13 1135.25C1402.18 1129.7 1403.63 1124.24 1406.34 1119.37C1410.07 1120.92 1413.93 1122.17 1417.87 1123.12C1416.78 1131.02 1416.78 1139.02 1417.87 1146.93C1413.88 1147.89 1409.98 1149.19 1406.22 1150.8C1403.61 1146.01 1402.21 1140.68 1402.13 1135.25ZM1436.86 1101.21C1441.28 1101.21 1446.03 1107.73 1448.6 1118.25C1440.83 1119.57 1432.88 1119.57 1425.11 1118.25C1427.68 1107.73 1432.65 1101.21 1436.86 1101.21ZM1423.18 1135.25C1423.18 1131.61 1423.43 1127.97 1423.93 1124.36C1428.2 1125.09 1432.52 1125.48 1436.86 1125.51C1441.19 1125.48 1445.51 1125.09 1449.78 1124.36C1450.28 1127.97 1450.53 1131.61 1450.54 1135.25C1450.54 1138.74 1450.31 1142.23 1449.86 1145.69C1441.25 1144.26 1432.46 1144.26 1423.85 1145.69C1423.4 1142.23 1423.18 1138.74 1423.18 1135.25ZM1456.01 1123.12C1459.95 1122.17 1463.8 1120.92 1467.54 1119.37C1472.82 1129.21 1472.82 1140.96 1467.54 1150.8C1463.77 1149.19 1459.87 1147.89 1455.88 1146.93C1456.47 1143.06 1456.79 1139.16 1456.85 1135.25C1456.86 1131.19 1456.57 1127.14 1456.01 1123.12ZM1463.96 1114C1460.98 1115.21 1457.92 1116.2 1454.79 1116.98C1453.75 1112.26 1451.96 1107.73 1449.48 1103.57C1455.16 1105.75 1460.15 1109.34 1463.96 1114ZM1424.23 1103.57C1421.75 1107.73 1419.96 1112.26 1418.93 1116.98C1415.8 1116.2 1412.73 1115.21 1409.75 1114C1413.56 1109.34 1418.55 1105.75 1424.23 1103.57ZM1409.46 1156.08C1412.49 1154.83 1415.61 1153.79 1418.8 1152.99C1419.82 1157.9 1421.65 1162.61 1424.23 1166.93C1418.4 1164.68 1413.3 1160.93 1409.46 1156.08ZM1449.48 1166.93C1452.08 1162.61 1453.92 1157.9 1454.96 1152.99C1458.14 1153.79 1461.27 1154.83 1464.3 1156.08C1460.44 1160.94 1455.33 1164.69 1449.48 1166.93Z" fill="var(--claw-primary)"/>
<path d="M1537.2 1162.2C1530.05 1162.2 1524.32 1159.56 1520 1154.28C1515.73 1148.95 1513.6 1141.85 1513.6 1133C1513.6 1124.25 1515.76 1117.21 1520.08 1111.88C1524.4 1106.49 1530.11 1103.8 1537.2 1103.8C1542.96 1103.8 1547.76 1105.56 1551.6 1109.08C1555.49 1112.6 1557.84 1117.35 1558.64 1123.32L1552.08 1124.44C1550.43 1114.84 1545.47 1110.04 1537.2 1110.04C1531.97 1110.04 1527.84 1112.09 1524.8 1116.2C1521.76 1120.31 1520.24 1125.91 1520.24 1133C1520.24 1140.15 1521.73 1145.77 1524.72 1149.88C1527.76 1153.93 1531.92 1155.96 1537.2 1155.96C1541.52 1155.96 1544.93 1154.63 1547.44 1151.96C1549.95 1149.29 1551.47 1145.4 1552 1140.28L1558.8 1141.16C1558.27 1147.67 1556.08 1152.81 1552.24 1156.6C1548.4 1160.33 1543.39 1162.2 1537.2 1162.2ZM1573.55 1161H1567.31V1102.6H1573.55V1122.52H1573.71C1574.88 1121.03 1576.56 1119.8 1578.75 1118.84C1580.94 1117.88 1583.18 1117.4 1585.47 1117.4C1590.38 1117.4 1594.27 1118.87 1597.15 1121.8C1600.08 1124.73 1601.55 1128.65 1601.55 1133.56V1161H1595.31V1134.36C1595.31 1130.89 1594.35 1128.17 1592.43 1126.2C1590.56 1124.23 1588 1123.24 1584.75 1123.24C1581.39 1123.24 1578.67 1124.28 1576.59 1126.36C1574.56 1128.39 1573.55 1131.05 1573.55 1134.36V1161ZM1624.01 1162.2C1619.74 1162.2 1616.35 1161.13 1613.85 1159C1611.34 1156.81 1610.09 1153.88 1610.09 1150.2C1610.09 1146.63 1611.23 1143.83 1613.53 1141.8C1615.82 1139.72 1619.63 1138.04 1624.97 1136.76C1629.02 1135.75 1631.82 1134.73 1633.37 1133.72C1634.97 1132.65 1635.77 1131.27 1635.77 1129.56C1635.77 1127.59 1634.97 1126.01 1633.37 1124.84C1631.77 1123.67 1629.66 1123.08 1627.05 1123.08C1624.27 1123.08 1621.95 1123.91 1620.09 1125.56C1618.22 1127.16 1616.99 1129.37 1616.41 1132.2L1610.09 1131C1610.78 1126.84 1612.67 1123.53 1615.77 1121.08C1618.86 1118.63 1622.62 1117.4 1627.05 1117.4C1631.79 1117.4 1635.53 1118.63 1638.25 1121.08C1640.97 1123.53 1642.33 1126.89 1642.33 1131.16V1161H1636.49V1156.52H1636.33C1633.55 1160.31 1629.45 1162.2 1624.01 1162.2ZM1624.49 1156.36C1627.9 1156.36 1630.67 1155.45 1632.81 1153.64C1634.99 1151.83 1636.09 1149.51 1636.09 1146.68V1137.16H1635.93C1635.13 1139.13 1632.03 1140.79 1626.65 1142.12C1622.91 1143.08 1620.25 1144.15 1618.65 1145.32C1617.1 1146.49 1616.33 1147.99 1616.33 1149.8C1616.33 1154.17 1619.05 1156.36 1624.49 1156.36ZM1671.05 1118.6V1124.2H1660.65V1151.32C1660.65 1152.71 1660.99 1153.69 1661.69 1154.28C1662.38 1154.87 1663.58 1155.16 1665.29 1155.16H1668.81V1161H1664.81C1660.97 1161 1658.27 1160.28 1656.73 1158.84C1655.18 1157.4 1654.41 1154.87 1654.41 1151.24V1124.2H1648.01V1118.6H1654.41V1109H1660.65V1118.6H1671.05ZM1720.48 1161H1713.68L1709.76 1149.72H1684.56L1680.64 1161H1673.84L1693.92 1105H1700.4L1720.48 1161ZM1697.12 1114.04L1686.64 1143.96H1707.76L1697.28 1114.04H1697.12ZM1734.3 1161H1727.74V1105H1749.34C1755.21 1105 1759.79 1106.55 1763.1 1109.64C1766.41 1112.73 1768.06 1116.95 1768.06 1122.28C1768.06 1127.67 1766.41 1131.88 1763.1 1134.92C1759.85 1137.91 1755.26 1139.4 1749.34 1139.4H1734.3V1161ZM1734.3 1111.24V1133.16H1748.94C1753.21 1133.16 1756.35 1132.28 1758.38 1130.52C1760.41 1128.76 1761.42 1126.01 1761.42 1122.28C1761.42 1114.92 1757.26 1111.24 1748.94 1111.24H1734.3ZM1783.52 1161H1776.96V1105H1798.56C1804.42 1105 1809.01 1106.55 1812.32 1109.64C1815.62 1112.73 1817.28 1116.95 1817.28 1122.28C1817.28 1127.67 1815.62 1131.88 1812.32 1134.92C1809.06 1137.91 1804.48 1139.4 1798.56 1139.4H1783.52V1161ZM1783.52 1111.24V1133.16H1798.16C1802.42 1133.16 1805.57 1132.28 1807.6 1130.52C1809.62 1128.76 1810.64 1126.01 1810.64 1122.28C1810.64 1114.92 1806.48 1111.24 1798.16 1111.24H1783.52Z" fill="var(--claw-primary)"/>
<path d="M1407.53 1228.92H1468.47C1472.08 1228.92 1475 1231.84 1475 1235.44V1296.39C1475 1300 1472.08 1302.92 1468.47 1302.92H1407.53C1403.92 1302.92 1401 1300 1401 1296.39V1235.44C1401 1231.84 1403.92 1228.92 1407.53 1228.92Z" stroke="var(--claw-primary)" stroke-width="6"/>
<path d="M1461 1253.92C1463.76 1253.92 1466 1256.16 1466 1258.92C1466 1261.68 1463.76 1263.92 1461 1263.92C1458.24 1263.92 1456 1261.68 1456 1258.92C1456 1256.16 1458.24 1253.92 1461 1253.92Z" stroke="var(--claw-primary)" stroke-width="4"/>
<path d="M1439 1265.92C1441.76 1265.92 1444 1268.16 1444 1270.92C1444 1273.68 1441.76 1275.92 1439 1275.92C1436.24 1275.92 1434 1273.68 1434 1270.92C1434 1268.16 1436.24 1265.92 1439 1265.92Z" stroke="var(--claw-primary)" stroke-width="4"/>
<path d="M1432 1253.92C1443.05 1253.92 1452 1262.87 1452 1273.92C1452 1284.97 1443.05 1293.92 1432 1293.92C1420.95 1293.92 1412 1284.97 1412 1273.92C1412 1262.87 1420.95 1253.92 1432 1253.92Z" stroke="var(--claw-primary)" stroke-width="4"/>
<path d="M1558 1291H1518.8V1235H1525.44V1284.76H1558V1291ZM1586.43 1292.2C1581.2 1292.2 1577.1 1290.76 1574.11 1287.88C1571.12 1285 1569.63 1280.63 1569.63 1274.76V1248.6H1575.87V1273.56C1575.87 1282.09 1579.55 1286.36 1586.91 1286.36C1590.86 1286.36 1593.98 1285.35 1596.27 1283.32C1598.62 1281.24 1599.79 1278.04 1599.79 1273.72V1248.6H1606.03V1291H1599.71V1286.76H1599.55C1598.27 1288.36 1596.43 1289.67 1594.03 1290.68C1591.63 1291.69 1589.1 1292.2 1586.43 1292.2ZM1636.62 1292.2C1632.14 1292.2 1628.6 1291.08 1625.98 1288.84C1623.37 1286.55 1622.06 1283.45 1622.06 1279.56C1622.06 1275.88 1623.42 1273 1626.14 1270.92C1628.92 1268.84 1633.34 1267.29 1639.42 1266.28C1643.53 1265.59 1646.44 1264.76 1648.14 1263.8C1649.85 1262.79 1650.7 1261.45 1650.7 1259.8C1650.7 1257.77 1649.82 1256.15 1648.06 1254.92C1646.36 1253.69 1643.98 1253.08 1640.94 1253.08C1637.64 1253.08 1634.86 1253.96 1632.62 1255.72C1630.44 1257.43 1629.1 1259.77 1628.62 1262.76L1622.54 1261.8C1623.08 1257.48 1625.02 1254.01 1628.38 1251.4C1631.8 1248.73 1635.98 1247.4 1640.94 1247.4C1646.01 1247.4 1649.98 1248.65 1652.86 1251.16C1655.8 1253.67 1657.26 1257.03 1657.26 1261.24V1291H1651.26V1285.72H1651.1C1649.88 1287.75 1647.98 1289.35 1645.42 1290.52C1642.86 1291.64 1639.93 1292.2 1636.62 1292.2ZM1637.82 1286.2C1641.24 1286.2 1644.28 1285.19 1646.94 1283.16C1649.61 1281.08 1650.94 1278.73 1650.94 1276.12V1267.16H1650.78C1649.77 1269.03 1646.44 1270.47 1640.78 1271.48C1636.36 1272.28 1633.18 1273.32 1631.26 1274.6C1629.34 1275.83 1628.38 1277.48 1628.38 1279.56C1628.38 1281.85 1629.13 1283.53 1630.62 1284.6C1632.12 1285.67 1634.52 1286.2 1637.82 1286.2Z" fill="var(--claw-primary)"/>
<path d="M1466.61 1394.68L1456.7 1410.93C1456.09 1411.95 1455.88 1413.19 1456.1 1414.38C1456.33 1415.57 1456.99 1416.61 1457.92 1417.28C1458.86 1417.95 1460 1418.19 1461.1 1417.95C1462.2 1417.71 1463.17 1417.01 1463.8 1416L1475.3 1397.16C1475.76 1396.39 1476.01 1395.49 1476 1394.57C1475.99 1393.65 1475.73 1392.75 1475.24 1392L1463.74 1374.02C1463.43 1373.53 1463.02 1373.1 1462.55 1372.78C1462.08 1372.45 1461.56 1372.22 1461.01 1372.12C1460.46 1372.01 1459.9 1372.02 1459.35 1372.15C1458.81 1372.28 1458.29 1372.52 1457.83 1372.86C1457.37 1373.21 1456.98 1373.65 1456.68 1374.15C1456.37 1374.66 1456.17 1375.23 1456.07 1375.82C1455.97 1376.42 1455.98 1377.03 1456.1 1377.62C1456.21 1378.21 1456.44 1378.77 1456.76 1379.27L1466.61 1394.68Z" fill="var(--claw-primary)"/>
<path d="M1412.25 1416.06C1412.57 1416.56 1412.97 1416.98 1413.44 1417.31C1413.91 1417.64 1414.44 1417.86 1414.99 1417.97C1415.53 1418.08 1416.1 1418.07 1416.64 1417.94C1417.19 1417.81 1417.71 1417.57 1418.17 1417.22C1418.62 1416.88 1419.02 1416.44 1419.32 1415.93C1419.62 1415.42 1419.83 1414.85 1419.93 1414.26C1420.03 1413.67 1420.02 1413.06 1419.9 1412.46C1419.78 1411.87 1419.55 1411.31 1419.24 1410.82L1409.38 1395.43L1419.29 1379.19C1419.6 1378.69 1419.81 1378.12 1419.92 1377.53C1420.03 1376.93 1420.03 1376.32 1419.91 1375.73C1419.8 1375.14 1419.59 1374.57 1419.27 1374.07C1418.96 1373.57 1418.56 1373.14 1418.09 1372.81C1417.63 1372.47 1417.1 1372.24 1416.55 1372.13C1416 1372.01 1415.44 1372.02 1414.89 1372.14C1414.34 1372.26 1413.82 1372.5 1413.36 1372.84C1412.9 1373.18 1412.5 1373.61 1412.2 1374.12L1400.7 1392.95C1400.24 1393.72 1399.99 1394.62 1400 1395.54C1400.01 1396.46 1400.27 1397.35 1400.76 1398.11L1412.25 1416.06Z" fill="var(--claw-primary)"/>
<path d="M1430.6 1417.29C1430.84 1417.38 1431.08 1417.44 1431.33 1417.48C1432.29 1417.63 1433.29 1417.41 1434.14 1416.84C1434.99 1416.27 1435.64 1415.39 1435.98 1414.37L1447.86 1378.68C1448.05 1378.11 1448.14 1377.5 1448.12 1376.89C1448.1 1376.28 1447.97 1375.69 1447.75 1375.15C1447.52 1374.6 1447.19 1374.11 1446.79 1373.72C1446.39 1373.32 1445.92 1373.01 1445.4 1372.82C1444.89 1372.62 1444.34 1372.55 1443.79 1372.59C1443.24 1372.63 1442.7 1372.79 1442.2 1373.06C1441.19 1373.61 1440.41 1374.57 1440.02 1375.74L1428.14 1411.42C1427.95 1412 1427.86 1412.61 1427.88 1413.22C1427.9 1413.82 1428.03 1414.41 1428.25 1414.96C1428.48 1415.5 1428.81 1415.99 1429.21 1416.39C1429.61 1416.79 1430.08 1417.09 1430.6 1417.29Z" fill="var(--claw-primary)"/>
<path d="M1522.8 1421H1516.4V1365H1524.16L1535.92 1397.72H1536.08L1547.84 1365H1555.6V1421H1549.2V1378.92H1549.04L1537.28 1410.6H1534.72L1522.96 1378.92H1522.8V1421ZM1589.23 1422.2C1582.24 1422.2 1576.62 1419.56 1572.35 1414.28C1568.14 1408.95 1566.03 1401.85 1566.03 1393C1566.03 1384.25 1568.16 1377.21 1572.43 1371.88C1576.75 1366.49 1582.35 1363.8 1589.23 1363.8C1594.83 1363.8 1599.52 1365.59 1603.31 1369.16C1607.15 1372.68 1609.47 1377.4 1610.27 1383.32L1603.71 1384.52C1602.86 1379.83 1601.2 1376.25 1598.75 1373.8C1596.3 1371.29 1593.12 1370.04 1589.23 1370.04C1584.16 1370.04 1580.14 1372.12 1577.15 1376.28C1574.16 1380.39 1572.67 1385.96 1572.67 1393C1572.67 1400.15 1574.14 1405.77 1577.07 1409.88C1580.06 1413.93 1584.11 1415.96 1589.23 1415.96C1593.39 1415.96 1596.7 1414.63 1599.15 1411.96C1601.6 1409.24 1603.1 1405.32 1603.63 1400.2L1610.43 1401.08C1609.9 1407.64 1607.74 1412.81 1603.95 1416.6C1600.16 1420.33 1595.26 1422.2 1589.23 1422.2ZM1627.9 1421H1621.26V1365H1643.34C1649.21 1365 1653.8 1366.55 1657.1 1369.64C1660.41 1372.73 1662.06 1376.95 1662.06 1382.28C1662.06 1387.61 1660.41 1391.8 1657.1 1394.84C1653.85 1397.88 1649.26 1399.4 1643.34 1399.4H1627.9V1421ZM1627.9 1371.24V1393.16H1642.94C1647.21 1393.16 1650.36 1392.28 1652.38 1390.52C1654.41 1388.76 1655.42 1386.01 1655.42 1382.28C1655.42 1374.92 1651.26 1371.24 1642.94 1371.24H1627.9Z" fill="var(--claw-primary)"/>
<path d="M1447.88 1496C1450.76 1496 1452.92 1498.16 1452.92 1501.2C1452.92 1504.32 1450.76 1506.56 1447.88 1506.56C1445 1506.56 1442.84 1504.32 1442.84 1501.2C1442.84 1498.16 1445 1496 1447.88 1496Z" fill="var(--claw-primary)"/>
<path d="M1430.46 1496C1433.34 1496 1435.5 1498.16 1435.5 1501.2C1435.5 1504.32 1433.34 1506.56 1430.46 1506.56C1427.58 1506.56 1425.42 1504.32 1425.42 1501.2C1425.42 1498.16 1427.58 1496 1430.46 1496Z" fill="var(--claw-primary)"/>
<path d="M1413.04 1496C1415.92 1496 1418.08 1498.16 1418.08 1501.2C1418.08 1504.32 1415.92 1506.56 1413.04 1506.56C1410.16 1506.56 1408 1504.32 1408 1501.2C1408 1498.16 1410.16 1496 1413.04 1496Z" fill="var(--claw-primary)"/>
<path d="M376.16 961.76C384.08 961.76 392 965.04 397.44 970.4L391.92 977.28C387.84 972.88 382 970.16 376.32 970.16C365.12 970.16 356.32 978.8 356.32 989.84C356.32 1000.88 365.12 1009.6 376.32 1009.6C381.92 1009.6 387.68 1007.04 391.92 1002.96L397.52 1009.2C391.84 1014.8 383.76 1018.4 375.84 1018.4C359.44 1018.4 346.72 1006 346.72 989.92C346.72 974 359.6 961.76 376.16 961.76ZM423.649 975.12C436.769 975.12 445.809 983.84 445.809 996.72C445.809 1009.52 436.769 1018.32 423.649 1018.32C410.449 1018.32 401.409 1009.52 401.409 996.72C401.409 983.84 410.449 975.12 423.649 975.12ZM423.649 983.04C415.969 983.04 410.609 988.64 410.609 996.8C410.609 1005.04 415.969 1010.64 423.649 1010.64C431.249 1010.64 436.609 1005.04 436.609 996.8C436.609 988.64 431.249 983.04 423.649 983.04ZM480.289 975.12C490.209 975.12 496.129 981.36 496.129 991.52V1018H486.929V994.08C486.929 987.68 483.089 983.76 476.689 983.76C469.649 983.84 465.249 988.72 464.609 995.36V1018H455.409V975.44H464.609V983.6C467.649 977.68 473.089 975.12 480.289 975.12ZM530.216 1008.24L532.536 1015.28C529.176 1017.28 525.656 1018.4 522.056 1018.4C515.656 1018.4 510.136 1014.72 510.136 1006V983.92H504.136V977.04H510.136V965.36H519.256V977.04H531.816V983.92H519.256V1004.32C519.256 1008.72 520.936 1010.08 523.816 1010.08C525.736 1010.08 527.736 1009.44 530.216 1008.24ZM558.086 975.12C573.046 975.12 579.126 984.88 578.006 1000.24H545.846C547.286 1006.8 552.326 1010.88 559.046 1010.88C563.686 1010.88 567.926 1009.12 571.046 1005.92L575.926 1011.12C571.766 1015.68 565.686 1018.32 558.326 1018.32C545.206 1018.32 536.566 1009.6 536.566 996.8C536.566 983.92 545.446 975.2 558.086 975.12ZM545.686 993.52H570.006C569.686 986.64 565.126 982.48 558.166 982.48C551.446 982.48 546.726 986.72 545.686 993.52ZM600.615 990L610.295 975.44H620.375L606.695 996.16L621.335 1018H610.775L600.615 1002.4L589.735 1018H579.495L594.535 996.16L580.535 975.44H591.095L600.615 990ZM651.232 1008.24L653.552 1015.28C650.192 1017.28 646.672 1018.4 643.072 1018.4C636.672 1018.4 631.152 1014.72 631.152 1006V983.92H625.152V977.04H631.152V965.36H640.272V977.04H652.832V983.92H640.272V1004.32C640.272 1008.72 641.952 1010.08 644.832 1010.08C646.752 1010.08 648.752 1009.44 651.232 1008.24ZM674.77 975.04C680.13 975.04 685.81 976.64 689.65 979.36L686.29 986.16C682.53 983.84 677.81 982.4 674.05 982.4C670.45 982.4 667.81 983.6 667.81 986.64C667.81 994.48 690.45 990.24 690.37 1005.68C690.37 1014.4 682.61 1018.32 674.05 1018.32C667.81 1018.32 661.17 1016.24 656.93 1012.4L660.21 1005.84C663.89 1009.12 669.81 1011.12 674.45 1011.12C678.37 1011.12 681.41 1009.76 681.41 1006.56C681.41 997.84 659.01 1002.72 659.09 987.36C659.09 978.72 666.61 975.04 674.77 975.04Z" fill="var(--claw-deep)"/>
<path d="M429.27 1122.85C429.27 1122.85 429.129 1122.54 429.022 1122.43L428.703 1122.12C429.483 1120.38 429.909 1118.51 429.909 1116.56C429.909 1108.89 423.562 1102.67 415.727 1102.67C415.089 1102.67 414.486 1102.71 413.848 1102.81C411.366 1098.54 406.722 1095.73 401.545 1095.73C397.291 1095.73 393.497 1097.6 390.909 1100.52C388.321 1097.6 384.527 1095.73 380.272 1095.73C375.096 1095.73 370.416 1098.51 367.97 1102.81C367.367 1102.74 366.729 1102.67 366.091 1102.67C358.255 1102.67 351.909 1108.89 351.909 1116.56C351.909 1118.51 352.334 1120.38 353.114 1122.15C350.065 1125.35 348.363 1129.52 348.363 1133.93C348.363 1138.06 349.888 1141.91 352.547 1144.97C352.653 1145.11 352.689 1145.28 352.795 1145.39L353.114 1145.7C352.334 1147.44 351.909 1149.31 351.909 1151.26C351.909 1158.93 358.255 1165.15 366.091 1165.15C366.729 1165.15 367.332 1165.11 367.97 1165.01C370.452 1169.28 375.096 1172.09 380.272 1172.09C384.527 1172.09 388.321 1170.22 390.909 1167.3C393.497 1170.22 397.291 1172.09 401.545 1172.09C406.721 1172.09 411.402 1169.31 413.848 1165.01C414.451 1165.08 415.089 1165.15 415.727 1165.15C423.562 1165.15 429.909 1158.93 429.909 1151.26C429.909 1149.31 429.483 1147.44 428.703 1145.66C431.752 1142.47 433.454 1138.3 433.454 1133.89C433.454 1129.76 431.93 1125.9 429.27 1122.85ZM380.272 1165.15C377.117 1165.15 374.316 1163.03 373.465 1160.01C373.216 1159.03 372.543 1158.23 371.621 1157.82C371.125 1157.57 370.593 1157.47 370.026 1157.47C369.565 1157.47 369.139 1157.54 368.714 1157.71C367.863 1158.06 366.977 1158.23 366.09 1158.23C362.19 1158.23 358.999 1155.11 358.999 1151.29C358.999 1150.84 359.141 1150.39 359.248 1149.94C361.41 1150.8 363.715 1151.29 366.09 1151.29C369.21 1151.29 372.295 1150.49 374.954 1148.96C376.656 1147.99 377.223 1145.87 376.23 1144.21C375.237 1142.54 373.075 1141.98 371.373 1142.96C367.792 1144.97 363.077 1144.62 359.744 1142.26C357.014 1140.25 355.418 1137.23 355.418 1133.93C355.418 1130.63 356.978 1127.61 359.744 1125.59C360.488 1125.04 360.985 1124.2 361.127 1123.3C361.268 1122.4 361.02 1121.46 360.453 1120.73C359.496 1119.48 358.999 1118.06 358.999 1116.56C358.999 1112.74 362.19 1109.62 366.09 1109.62C366.977 1109.62 367.863 1109.79 368.714 1110.14C369.671 1110.52 370.699 1110.45 371.621 1110.03C372.543 1109.58 373.216 1108.78 373.464 1107.85C374.315 1104.83 377.116 1102.71 380.272 1102.71C384.172 1102.71 387.363 1105.83 387.363 1109.65V1158.27C387.363 1162.09 384.172 1165.21 380.272 1165.21L380.272 1165.15ZM422.037 1142.23C421.292 1142.78 420.796 1143.62 420.654 1144.52C420.512 1145.42 420.76 1146.36 421.328 1147.09C422.285 1148.34 422.781 1149.76 422.781 1151.26C422.781 1155.08 419.59 1158.2 415.69 1158.2C414.804 1158.2 413.918 1158.03 413.067 1157.68C412.145 1157.3 411.081 1157.37 410.16 1157.78C409.238 1158.24 408.564 1159.03 408.316 1159.97C407.465 1162.99 404.664 1165.11 401.509 1165.11C397.609 1165.11 394.418 1161.99 394.418 1158.17V1109.55C394.418 1105.73 397.609 1102.6 401.509 1102.6C404.664 1102.6 407.465 1104.72 408.316 1107.74C408.564 1108.72 409.238 1109.51 410.16 1109.93C411.081 1110.38 412.11 1110.42 413.067 1110.04C413.918 1109.69 414.804 1109.51 415.69 1109.51C419.59 1109.51 422.781 1112.64 422.781 1116.46C422.781 1116.91 422.639 1117.36 422.533 1117.81C420.37 1116.95 418.066 1116.46 415.69 1116.46C412.57 1116.46 409.486 1117.26 406.827 1118.79C405.125 1119.76 404.558 1121.88 405.55 1123.54C406.543 1125.21 408.706 1125.77 410.408 1124.79C413.989 1122.75 418.704 1123.13 422.037 1125.49C424.767 1127.5 426.362 1130.52 426.362 1133.82C426.362 1137.12 424.802 1140.14 422.037 1142.16L422.037 1142.23Z" fill="var(--claw-deep)"/>
<path d="M476.8 1161H470.4V1105H478.16L489.92 1137.72H490.08L501.84 1105H509.6V1161H503.2V1118.92H503.04L491.28 1150.6H488.72L476.96 1118.92H476.8V1161ZM542.031 1162.2C535.845 1162.2 530.831 1160.15 526.991 1156.04C523.151 1151.88 521.231 1146.47 521.231 1139.8C521.231 1133.13 523.151 1127.75 526.991 1123.64C530.831 1119.48 535.845 1117.4 542.031 1117.4C548.111 1117.4 553.018 1119.45 556.751 1123.56C560.538 1127.67 562.431 1133.08 562.431 1139.8V1142.12H527.791C528.005 1146.39 529.418 1149.83 532.031 1152.44C534.645 1155 537.978 1156.28 542.031 1156.28C548.165 1156.28 552.885 1153.32 556.191 1147.4L561.471 1150.76C556.831 1158.39 550.351 1162.2 542.031 1162.2ZM527.951 1136.76H555.791C555.471 1132.71 554.058 1129.45 551.551 1127C549.045 1124.55 545.871 1123.32 542.031 1123.32C538.031 1123.32 534.725 1124.57 532.111 1127.08C529.551 1129.59 528.165 1132.81 527.951 1136.76ZM578.383 1161H572.063V1118.6H578.303V1121.64H578.463C580.223 1118.81 582.889 1117.4 586.463 1117.4C588.276 1117.4 589.956 1117.88 591.503 1118.84C593.103 1119.8 594.249 1121.05 594.943 1122.6H595.103C597.343 1119.13 600.596 1117.4 604.863 1117.4C608.436 1117.4 611.263 1118.52 613.343 1120.76C615.476 1123 616.543 1126.01 616.543 1129.8V1161H610.223V1130.52C610.223 1128.23 609.689 1126.44 608.623 1125.16C607.556 1123.83 606.009 1123.16 603.983 1123.16C601.903 1123.16 600.249 1123.88 599.023 1125.32C597.849 1126.71 597.263 1128.63 597.263 1131.08V1161H591.183V1130.52C591.183 1128.23 590.623 1126.44 589.503 1125.16C588.383 1123.83 586.809 1123.16 584.783 1123.16C582.809 1123.16 581.236 1123.88 580.063 1125.32C578.943 1126.71 578.383 1128.63 578.383 1131.08V1161ZM661.134 1156.04C657.294 1160.15 652.28 1162.2 646.094 1162.2C639.907 1162.2 634.894 1160.15 631.054 1156.04C627.214 1151.88 625.294 1146.47 625.294 1139.8C625.294 1133.13 627.214 1127.75 631.054 1123.64C634.894 1119.48 639.907 1117.4 646.094 1117.4C652.28 1117.4 657.294 1119.48 661.134 1123.64C664.974 1127.75 666.894 1133.13 666.894 1139.8C666.894 1146.47 664.974 1151.88 661.134 1156.04ZM635.534 1151.88C638.2 1154.87 641.72 1156.36 646.094 1156.36C650.467 1156.36 653.987 1154.87 656.654 1151.88C659.32 1148.84 660.654 1144.81 660.654 1139.8C660.654 1134.79 659.32 1130.79 656.654 1127.8C653.987 1124.76 650.467 1123.24 646.094 1123.24C641.72 1123.24 638.2 1124.76 635.534 1127.8C632.867 1130.79 631.534 1134.79 631.534 1139.8C631.534 1144.81 632.867 1148.84 635.534 1151.88ZM690.445 1161H684.205V1118.6H690.285V1124.04H690.445C693.378 1119.61 697.885 1117.4 703.965 1117.4C710.632 1117.4 715.618 1120.47 718.925 1126.6L713.485 1129.72C711.085 1125.4 707.778 1123.24 703.565 1123.24C699.618 1123.24 696.445 1124.52 694.045 1127.08C691.645 1129.64 690.445 1132.97 690.445 1137.08V1161ZM743.036 1179H736.396L747.116 1157.96L726.956 1118.6H734.076L750.316 1151.32H750.476L766.716 1118.6H773.356L743.036 1179Z" fill="var(--claw-deep)"/>
<path d="M391.524 1247.44C382.115 1247.44 374.479 1255.08 374.479 1264.49C374.479 1273.9 382.115 1281.53 391.524 1281.53C400.933 1281.53 408.569 1273.9 408.569 1264.49C408.569 1255.08 400.933 1247.44 391.524 1247.44ZM391.524 1274.72C385.899 1274.72 381.297 1270.11 381.297 1264.49C381.297 1258.86 385.899 1254.26 391.524 1254.26C397.149 1254.26 401.751 1258.86 401.751 1264.49C401.751 1270.11 397.149 1274.72 391.524 1274.72Z" fill="var(--claw-deep)"/>
<path d="M422.853 1254.26C421.148 1254.26 420.466 1252.97 420.296 1252.56C420.125 1252.15 419.682 1250.75 420.875 1249.56C424.591 1245.84 424.591 1239.74 420.875 1236.02L419.955 1235.1C416.239 1231.35 410.137 1231.35 406.421 1235.1C405.228 1236.33 403.83 1235.85 403.421 1235.68C403.012 1235.51 401.716 1234.83 401.716 1233.13C401.716 1227.84 397.421 1223.55 392.137 1223.55H390.841C385.557 1223.55 381.262 1227.84 381.262 1233.13C381.262 1234.83 379.966 1235.51 379.557 1235.68C379.148 1235.85 377.785 1236.3 376.557 1235.1C372.841 1231.35 366.739 1231.35 363.023 1235.1L362.103 1236.02C358.387 1239.74 358.387 1245.84 362.103 1249.56C363.296 1250.75 362.853 1252.15 362.682 1252.56C362.512 1252.97 361.83 1254.26 360.125 1254.26C354.841 1254.26 350.546 1258.56 350.546 1263.84V1265.14C350.546 1270.42 354.841 1274.72 360.125 1274.72C361.83 1274.72 362.512 1276.01 362.682 1276.42C362.853 1276.83 363.296 1278.23 362.103 1279.42C358.387 1283.14 358.387 1289.24 362.103 1292.95L363.023 1293.88C366.739 1297.63 372.841 1297.63 376.557 1293.88C377.785 1292.68 379.148 1293.13 379.557 1293.3C379.966 1293.47 381.262 1294.15 381.262 1295.85C381.262 1301.14 385.557 1305.43 390.841 1305.43H392.137C397.421 1305.43 401.716 1301.14 401.716 1295.85C401.716 1294.15 403.012 1293.47 403.421 1293.3C403.83 1293.13 405.228 1292.68 406.421 1293.88C410.137 1297.63 416.239 1297.63 419.955 1293.88L420.875 1292.95C424.591 1289.24 424.591 1283.14 420.875 1279.42C419.682 1278.23 420.125 1276.83 420.296 1276.42C420.466 1276.01 421.148 1274.72 422.853 1274.72C428.137 1274.72 432.432 1270.42 432.432 1265.14V1263.84C432.432 1258.56 428.137 1254.26 422.853 1254.26ZM425.614 1265.14C425.614 1266.67 424.387 1267.9 422.853 1267.9C418.898 1267.9 415.523 1270.15 414.023 1273.8C412.523 1277.44 413.307 1281.43 416.103 1284.23C417.159 1285.32 417.159 1287.06 416.103 1288.11L415.182 1289.03C414.125 1290.09 412.352 1290.09 411.296 1289.03C408.5 1286.24 404.512 1285.45 400.864 1286.95C397.217 1288.45 394.966 1291.86 394.966 1295.78C394.966 1297.32 393.739 1298.55 392.205 1298.55H390.91C389.376 1298.55 388.148 1297.32 388.148 1295.78C388.148 1291.83 385.898 1288.45 382.251 1286.95C381.023 1286.44 379.762 1286.2 378.535 1286.2C376.08 1286.2 373.694 1287.19 371.819 1289.03C370.762 1290.09 368.989 1290.09 367.933 1289.03L367.012 1288.11C365.955 1287.02 365.955 1285.28 367.012 1284.23C369.808 1281.43 370.592 1277.44 369.092 1273.8C367.592 1270.15 364.183 1267.9 360.262 1267.9C358.728 1267.9 357.501 1266.67 357.501 1265.14V1263.84C357.501 1262.31 358.728 1261.08 360.262 1261.08C364.217 1261.08 367.592 1258.83 369.092 1255.18C370.592 1251.53 369.808 1247.55 367.012 1244.75C365.955 1243.66 365.955 1241.92 367.012 1240.86L367.933 1239.94C368.99 1238.89 370.762 1238.89 371.819 1239.94C374.614 1242.74 378.603 1243.52 382.251 1242.02C385.898 1240.52 388.148 1237.11 388.148 1233.19C388.148 1231.66 389.376 1230.43 390.91 1230.43H392.205C393.739 1230.43 394.966 1231.66 394.966 1233.19C394.966 1237.15 397.216 1240.52 400.864 1242.02C404.512 1243.52 408.5 1242.74 411.296 1239.94C412.353 1238.89 414.125 1238.89 415.182 1239.94L416.103 1240.86C417.159 1241.96 417.159 1243.69 416.103 1244.75C413.307 1247.55 412.523 1251.53 414.023 1255.18C415.523 1258.83 418.932 1261.08 422.853 1261.08C424.387 1261.08 425.614 1262.31 425.614 1263.84V1265.14Z" fill="var(--claw-deep)"/>
<path d="M491.84 1292.2C484.853 1292.2 479.333 1290.52 475.28 1287.16C471.28 1283.8 468.987 1278.89 468.4 1272.44L474.96 1271.32C475.547 1276.33 477.2 1280.04 479.92 1282.44C482.693 1284.79 486.693 1285.96 491.92 1285.96C495.867 1285.96 499.04 1285.13 501.44 1283.48C503.84 1281.83 505.04 1279.64 505.04 1276.92C505.04 1274.09 503.92 1271.8 501.68 1270.04C499.44 1268.28 495.307 1266.41 489.28 1264.44C482.453 1262.25 477.707 1260.01 475.04 1257.72C472.427 1255.37 471.12 1252.33 471.12 1248.6C471.12 1244.23 472.8 1240.68 476.16 1237.96C479.573 1235.19 484 1233.8 489.44 1233.8C494.827 1233.8 499.36 1235.27 503.04 1238.2C506.773 1241.13 509.093 1245.11 510 1250.12L503.52 1251.56C501.707 1243.88 496.987 1240.04 489.36 1240.04C485.787 1240.04 482.933 1240.81 480.8 1242.36C478.72 1243.91 477.68 1245.99 477.68 1248.6C477.68 1250.68 478.613 1252.39 480.48 1253.72C482.4 1255.05 486.08 1256.63 491.52 1258.44C498.987 1260.89 504.187 1263.48 507.12 1266.2C510.107 1268.87 511.6 1272.39 511.6 1276.76C511.6 1281.35 509.787 1285.08 506.16 1287.96C502.533 1290.79 497.76 1292.2 491.84 1292.2ZM529.551 1291H523.311V1232.6H529.551V1269.32H529.711L553.551 1248.6H562.511L542.351 1265.96L563.551 1291H555.231L537.471 1269.64H537.311L529.551 1276.6V1291ZM590.303 1234.2H597.823V1241.64H590.303V1234.2ZM597.183 1248.6V1285.16H614.063V1291H574.063V1285.16H590.943V1254.44H574.863V1248.6H597.183ZM649.214 1235V1285.16H666.094V1291H626.094V1285.16H642.974V1240.84H626.894V1235H649.214ZM701.245 1235V1285.16H718.125V1291H678.125V1285.16H695.005V1240.84H678.925V1235H701.245ZM751.596 1292.2C745.783 1292.2 741.036 1290.81 737.356 1288.04C733.676 1285.21 731.463 1281.35 730.716 1276.44L736.876 1275.16C737.623 1279 739.17 1281.83 741.516 1283.64C743.916 1285.4 747.276 1286.28 751.596 1286.28C755.223 1286.28 758.103 1285.69 760.236 1284.52C762.423 1283.35 763.516 1281.77 763.516 1279.8C763.516 1277.77 762.503 1276.17 760.476 1275C758.503 1273.83 754.93 1272.81 749.756 1271.96C743.41 1270.84 738.956 1269.4 736.396 1267.64C733.89 1265.83 732.636 1263.24 732.636 1259.88C732.636 1256.25 734.156 1253.27 737.196 1250.92C740.29 1248.57 744.37 1247.4 749.436 1247.4C754.023 1247.4 758.076 1248.71 761.596 1251.32C765.17 1253.88 767.383 1257.16 768.236 1261.16L762.236 1262.52C761.49 1259.69 759.943 1257.45 757.596 1255.8C755.303 1254.15 752.583 1253.32 749.436 1253.32C746.29 1253.32 743.73 1253.93 741.756 1255.16C739.836 1256.33 738.876 1257.8 738.876 1259.56C738.876 1261.21 739.756 1262.52 741.516 1263.48C743.276 1264.44 746.61 1265.37 751.516 1266.28C758.183 1267.56 762.876 1269.21 765.596 1271.24C768.37 1273.27 769.756 1276.09 769.756 1279.72C769.756 1283.51 768.103 1286.55 764.796 1288.84C761.543 1291.08 757.143 1292.2 751.596 1292.2Z" fill="var(--claw-deep)"/>
<path d="M873.391 196.616H844.015L839.119 209H821.551L850.543 141.8H868.111L896.431 209H878.191L873.391 196.616ZM868.399 183.656L858.799 158.792L849.007 183.656H868.399ZM949.814 157.256V204.296C949.814 218.984 938.486 228.296 921.782 228.296C912.758 228.296 904.598 225.416 898.742 221.48L904.502 210.248C909.206 213.512 914.966 215.432 920.534 215.432C928.502 215.432 933.302 211.208 933.302 204.776V199.304C929.942 203.72 924.854 206.216 918.422 206.216C905.366 206.216 896.15 196.232 896.15 181.16C896.15 166.472 905.078 156.68 918.038 156.68C924.662 156.584 929.846 159.08 933.302 163.592V157.256H949.814ZM922.55 194.216C928.982 194.216 933.302 189.032 933.302 181.64C933.302 174.056 928.982 168.968 922.55 168.968C916.022 168.968 911.606 174.152 911.606 181.64C911.606 189.032 916.022 194.216 922.55 194.216ZM985.186 156.68C1003.43 156.68 1012.45 168.68 1011.3 187.592H974.914C976.546 193.736 980.962 197.192 987.106 197.192C991.618 197.192 996.034 195.368 999.49 191.912L1008.23 200.456C1002.95 206.216 995.17 209.576 985.666 209.576C968.77 209.576 958.21 199.016 958.21 183.272C958.21 167.24 969.154 156.68 985.186 156.68ZM974.626 178.664H995.362C995.362 172.328 991.33 168.2 985.378 168.2C979.618 168.2 975.682 172.424 974.626 178.664ZM1054.17 156.488C1065.59 156.488 1073.08 164.264 1073.08 176.36V209H1056.57V180.968C1056.57 174.92 1053.02 171.176 1047.45 171.176C1041.4 171.176 1037.56 175.496 1036.89 181.64V209H1020.28V157.256H1036.89V165.704C1040.54 159.656 1046.49 156.584 1054.17 156.488ZM1115.02 194.696L1118.28 206.216C1114.54 208.424 1109.45 209.768 1104.46 209.768C1094.47 209.768 1087.27 204.104 1087.27 193.352V170.504H1080.07V159.656H1087.27V145.256H1103.79V159.56H1117.32V170.504H1103.79V190.76C1103.79 194.792 1105.51 196.52 1108.59 196.424C1110.31 196.424 1112.52 195.752 1115.02 194.696ZM1166.09 194.696H1194.6V209H1149V141.8H1166.09V194.696ZM1226.62 156.68C1243.52 156.68 1254.85 167.144 1254.85 183.08C1254.85 199.016 1243.52 209.576 1226.62 209.576C1209.63 209.576 1198.3 199.016 1198.3 183.08C1198.3 167.144 1209.63 156.68 1226.62 156.68ZM1226.62 169.832C1219.71 169.832 1215.01 175.304 1215.01 183.272C1215.01 191.336 1219.71 196.712 1226.62 196.712C1233.44 196.712 1238.14 191.336 1238.14 183.272C1238.14 175.304 1233.44 169.832 1226.62 169.832ZM1287.75 156.68C1304.65 156.68 1315.97 167.144 1315.97 183.08C1315.97 199.016 1304.65 209.576 1287.75 209.576C1270.76 209.576 1259.43 199.016 1259.43 183.08C1259.43 167.144 1270.76 156.68 1287.75 156.68ZM1287.75 169.832C1280.84 169.832 1276.13 175.304 1276.13 183.272C1276.13 191.336 1280.84 196.712 1287.75 196.712C1294.57 196.712 1299.27 191.336 1299.27 183.272C1299.27 175.304 1294.57 169.832 1287.75 169.832ZM1357.42 156.68C1372.01 156.68 1381.71 167.336 1381.71 183.368C1381.71 199.112 1372.3 209.576 1357.8 209.576C1351.08 209.576 1345.61 206.888 1341.96 202.088V227.624H1325.35V157.256H1341.96V164.072C1345.61 159.368 1350.89 156.68 1357.42 156.68ZM1353.39 196.424C1360.3 196.424 1365 190.856 1365 182.888C1365 175.016 1360.3 169.448 1353.39 169.448C1346.67 169.448 1341.96 175.016 1341.96 182.888C1341.96 190.952 1346.67 196.424 1353.39 196.424Z" fill="var(--claw-primary-3)"/>
<path d="M583.262 800.826C585.326 804.371 582.809 808.85 578.753 808.85L569.676 808.85L569.677 851.15L578.754 851.15C582.81 851.15 585.327 855.629 583.263 859.174L564.509 891.388C562.482 894.871 557.519 894.871 555.491 891.388L536.738 859.174C534.674 855.629 537.191 851.15 541.247 851.15L550.324 851.15L550.323 808.85L541.246 808.85C537.19 808.85 534.673 804.371 536.737 800.826L555.491 768.612C557.518 765.129 562.481 765.129 564.509 768.612L583.262 800.826Z" fill="var(--claw-deep)"/>
</svg>
